# xmcd
#
# Track frame offsets: 
#        150
#        17056
#        31370
#        46982
#        59580
#        72818
#        86758
#        105343
#        116981
#        132961
#        149452
#        165055
#
# Disc length: 2446 seconds
#
# Revision: 0
# Processed by: cddbd v1.5.1PL0 Copyright (c) Steve Scherf et al.
# Submitted via: ExactAudioCopy v0.95a5
#
DISCID=a0098c0c
DTITLE=Lili Cros - Lili Cros
DYEAR=2005
DGENRE=
TTITLE0=Le fiancé
TTITLE1=Les lignes de la main
TTITLE2=La montagne
TTITLE3=Enlève-moi
TTITLE4=Le bonheur
TTITLE5=Direction Bulgarie
TTITLE6=L'âme idéale
TTITLE7=La ville
TTITLE8=Le grain de sable
TTITLE9=Restons-en là
TTITLE10=Ma bonne étoile
TTITLE11=Paris, 14 juillet
EXTD=
EXTT0=
EXTT1=
EXTT2=
EXTT3=
EXTT4=
EXTT5=
EXTT6=
EXTT7=
EXTT8=
EXTT9=
EXTT10=
EXTT11=
PLAYORDER=
